# xmcd
#
# Track frame offsets:
#	150
#	21018
#	35702
#	50529
#	66713
#	78010
#	90102
#	109358
#	120343
#	135544
#
# Disc length: 2011 seconds
#
# Revision: 1
# Processed by: cddbd v1.5.2PL0 Copyright (c) Steve Scherf et al.
# Submitted via: audiograbber 1.83.01
#
DISCID=7c07d90a
DTITLE=The Blind Robins - Panorama Valley
DYEAR=2006
DGENRE=Country Rock
TTITLE0=Famous Non-Belivers
TTITLE1=William Jennings Bryan
TTITLE2=Miss Limestone County
TTITLE3=Santa Clarita
TTITLE4=Skeleton Waltz
TTITLE5=Cash And The Carters
TTITLE6=Panorama Valley
TTITLE7=Black River
TTITLE8=Two Good eyes
TTITLE9=You Want It, You Get It
EXTD=
EXTT0=
EXTT1=
EXTT2=
EXTT3=
EXTT4=
EXTT5=
EXTT6=
EXTT7=
EXTT8=
EXTT9=
PLAYORDER=
